<?xml version="1.0" encoding="utf-8" standalone="no"?>
<!DOCTYPE svg PUBLIC "-//W3C//DTD SVG 1.1//EN"
  "http://www.w3.org/Graphics/SVG/1.1/DTD/svg11.dtd">
<svg xmlns:xlink="http://www.w3.org/1999/xlink" width="352.777067pt" height="197.377969pt" viewBox="0 0 352.777067 197.377969" xmlns="http://www.w3.org/2000/svg" version="1.1">
 <metadata>
  <rdf:RDF xmlns:dc="http://purl.org/dc/elements/1.1/" xmlns:cc="http://creativecommons.org/ns#" xmlns:rdf="http://www.w3.org/1999/02/22-rdf-syntax-ns#">
   <cc:Work>
    <dc:type rdf:resource="http://purl.org/dc/dcmitype/StillImage"/>
    <dc:date>2024-06-23T16:00:44.060795</dc:date>
    <dc:format>image/svg+xml</dc:format>
    <dc:creator>
     <cc:Agent>
      <dc:title>Matplotlib v3.8.4, https://matplotlib.org/</dc:title>
     </cc:Agent>
    </dc:creator>
   </cc:Work>
  </rdf:RDF>
 </metadata>
 <defs>
  <style type="text/css">*{stroke-linejoin: round; stroke-linecap: butt}</style>
 </defs>
 <g id="figure_1">
  <g id="patch_1">
   <path d="M 0 197.377969 
L 352.777067 197.377969 
L 352.777067 0 
L 0 0 
z
" style="fill: #ffffff"/>
  </g>
  <g id="axes_1">
   <g id="patch_2">
    <path d="M 67.60125 162.84375 
L 347.642076 162.84375 
L 347.642076 0 
L 67.60125 0 
z
" style="fill: #eaeaf2"/>
   </g>
   <g id="matplotlib.axis_1">
    <g id="xtick_1">
     <g id="line2d_1">
      <path d="M 80.330378 162.84375 
L 80.330378 0 
" clip-path="url(#p9b5c4685f6)" style="fill: none; stroke: #ffffff; stroke-linecap: round"/>
     </g>
     <g id="text_1">
      <!-- 0 -->
      <g style="fill: #262626" transform="translate(77.271863 180.217344) scale(0.11 -0.11)">
       <defs>
        <path id="ArialMT-30" d="M 266 2259 
Q 266 3072 433 3567 
Q 600 4063 929 4331 
Q 1259 4600 1759 4600 
Q 2128 4600 2406 4451 
Q 2684 4303 2865 4023 
Q 3047 3744 3150 3342 
Q 3253 2941 3253 2259 
Q 3253 1453 3087 958 
Q 2922 463 2592 192 
Q 2263 -78 1759 -78 
Q 1097 -78 719 397 
Q 266 969 266 2259 
z
M 844 2259 
Q 844 1131 1108 757 
Q 1372 384 1759 384 
Q 2147 384 2411 759 
Q 2675 1134 2675 2259 
Q 2675 3391 2411 3762 
Q 2147 4134 1753 4134 
Q 1366 4134 1134 3806 
Q 844 3388 844 2259 
z
" transform="scale(0.015625)"/>
       </defs>
       <use xlink:href="#ArialMT-30"/>
      </g>
     </g>
    </g>
    <g id="xtick_2">
     <g id="line2d_2">
      <path d="M 144.618906 162.84375 
L 144.618906 0 
" clip-path="url(#p9b5c4685f6)" style="fill: none; stroke: #ffffff; stroke-linecap: round"/>
     </g>
     <g id="text_2">
      <!-- 5000 -->
      <g style="fill: #262626" transform="translate(132.384844 180.217344) scale(0.11 -0.11)">
       <defs>
        <path id="ArialMT-35" d="M 266 1200 
L 856 1250 
Q 922 819 1161 601 
Q 1400 384 1738 384 
Q 2144 384 2425 690 
Q 2706 997 2706 1503 
Q 2706 1984 2436 2262 
Q 2166 2541 1728 2541 
Q 1456 2541 1237 2417 
Q 1019 2294 894 2097 
L 366 2166 
L 809 4519 
L 3088 4519 
L 3088 3981 
L 1259 3981 
L 1013 2750 
Q 1425 3038 1878 3038 
Q 2478 3038 2890 2622 
Q 3303 2206 3303 1553 
Q 3303 931 2941 478 
Q 2500 -78 1738 -78 
Q 1113 -78 717 272 
Q 322 622 266 1200 
z
" transform="scale(0.015625)"/>
       </defs>
       <use xlink:href="#ArialMT-35"/>
       <use xlink:href="#ArialMT-30" x="55.615234"/>
       <use xlink:href="#ArialMT-30" x="111.230469"/>
       <use xlink:href="#ArialMT-30" x="166.845703"/>
      </g>
     </g>
    </g>
    <g id="xtick_3">
     <g id="line2d_3">
      <path d="M 208.907434 162.84375 
L 208.907434 0 
" clip-path="url(#p9b5c4685f6)" style="fill: none; stroke: #ffffff; stroke-linecap: round"/>
     </g>
     <g id="text_3">
      <!-- 10000 -->
      <g style="fill: #262626" transform="translate(193.614856 180.217344) scale(0.11 -0.11)">
       <defs>
        <path id="ArialMT-31" d="M 2384 0 
L 1822 0 
L 1822 3584 
Q 1619 3391 1289 3197 
Q 959 3003 697 2906 
L 697 3450 
Q 1169 3672 1522 3987 
Q 1875 4303 2022 4600 
L 2384 4600 
L 2384 0 
z
" transform="scale(0.015625)"/>
       </defs>
       <use xlink:href="#ArialMT-31"/>
       <use xlink:href="#ArialMT-30" x="55.615234"/>
       <use xlink:href="#ArialMT-30" x="111.230469"/>
       <use xlink:href="#ArialMT-30" x="166.845703"/>
       <use xlink:href="#ArialMT-30" x="222.460938"/>
      </g>
     </g>
    </g>
    <g id="xtick_4">
     <g id="line2d_4">
      <path d="M 273.195961 162.84375 
L 273.195961 0 
" clip-path="url(#p9b5c4685f6)" style="fill: none; stroke: #ffffff; stroke-linecap: round"/>
     </g>
     <g id="text_4">
      <!-- 15000 -->
      <g style="fill: #262626" transform="translate(257.903383 180.217344) scale(0.11 -0.11)">
       <use xlink:href="#ArialMT-31"/>
       <use xlink:href="#ArialMT-35" x="55.615234"/>
       <use xlink:href="#ArialMT-30" x="111.230469"/>
       <use xlink:href="#ArialMT-30" x="166.845703"/>
       <use xlink:href="#ArialMT-30" x="222.460938"/>
      </g>
     </g>
    </g>
    <g id="xtick_5">
     <g id="line2d_5">
      <path d="M 337.484489 162.84375 
L 337.484489 0 
" clip-path="url(#p9b5c4685f6)" style="fill: none; stroke: #ffffff; stroke-linecap: round"/>
     </g>
     <g id="text_5">
      <!-- 20000 -->
      <g style="fill: #262626" transform="translate(322.191911 180.217344) scale(0.11 -0.11)">
       <defs>
        <path id="ArialMT-32" d="M 3222 541 
L 3222 0 
L 194 0 
Q 188 203 259 391 
Q 375 700 629 1000 
Q 884 1300 1366 1694 
Q 2113 2306 2375 2664 
Q 2638 3022 2638 3341 
Q 2638 3675 2398 3904 
Q 2159 4134 1775 4134 
Q 1369 4134 1125 3890 
Q 881 3647 878 3216 
L 300 3275 
Q 359 3922 746 4261 
Q 1134 4600 1788 4600 
Q 2447 4600 2831 4234 
Q 3216 3869 3216 3328 
Q 3216 3053 3103 2787 
Q 2991 2522 2730 2228 
Q 2469 1934 1863 1422 
Q 1356 997 1212 845 
Q 1069 694 975 541 
L 3222 541 
z
" transform="scale(0.015625)"/>
       </defs>
       <use xlink:href="#ArialMT-32"/>
       <use xlink:href="#ArialMT-30" x="55.615234"/>
       <use xlink:href="#ArialMT-30" x="111.230469"/>
       <use xlink:href="#ArialMT-30" x="166.845703"/>
       <use xlink:href="#ArialMT-30" x="222.460938"/>
      </g>
     </g>
    </g>
    <g id="text_6">
     <!-- Environment steps -->
     <g style="fill: #262626" transform="translate(157.934163 194.992969) scale(0.12 -0.12)">
      <defs>
       <path id="ArialMT-45" d="M 506 0 
L 506 4581 
L 3819 4581 
L 3819 4041 
L 1113 4041 
L 1113 2638 
L 3647 2638 
L 3647 2100 
L 1113 2100 
L 1113 541 
L 3925 541 
L 3925 0 
L 506 0 
z
" transform="scale(0.015625)"/>
       <path id="ArialMT-6e" d="M 422 0 
L 422 3319 
L 928 3319 
L 928 2847 
Q 1294 3394 1984 3394 
Q 2284 3394 2536 3286 
Q 2788 3178 2913 3003 
Q 3038 2828 3088 2588 
Q 3119 2431 3119 2041 
L 3119 0 
L 2556 0 
L 2556 2019 
Q 2556 2363 2490 2533 
Q 2425 2703 2258 2804 
Q 2091 2906 1866 2906 
Q 1506 2906 1245 2678 
Q 984 2450 984 1813 
L 984 0 
L 422 0 
z
" transform="scale(0.015625)"/>
       <path id="ArialMT-76" d="M 1344 0 
L 81 3319 
L 675 3319 
L 1388 1331 
Q 1503 1009 1600 663 
Q 1675 925 1809 1294 
L 2547 3319 
L 3125 3319 
L 1869 0 
L 1344 0 
z
" transform="scale(0.015625)"/>
       <path id="ArialMT-69" d="M 425 3934 
L 425 4581 
L 988 4581 
L 988 3934 
L 425 3934 
z
M 425 0 
L 425 3319 
L 988 3319 
L 988 0 
L 425 0 
z
" transform="scale(0.015625)"/>
       <path id="ArialMT-72" d="M 416 0 
L 416 3319 
L 922 3319 
L 922 2816 
Q 1116 3169 1280 3281 
Q 1444 3394 1641 3394 
Q 1925 3394 2219 3213 
L 2025 2691 
Q 1819 2813 1613 2813 
Q 1428 2813 1281 2702 
Q 1134 2591 1072 2394 
Q 978 2094 978 1738 
L 978 0 
L 416 0 
z
" transform="scale(0.015625)"/>
       <path id="ArialMT-6f" d="M 213 1659 
Q 213 2581 725 3025 
Q 1153 3394 1769 3394 
Q 2453 3394 2887 2945 
Q 3322 2497 3322 1706 
Q 3322 1066 3130 698 
Q 2938 331 2570 128 
Q 2203 -75 1769 -75 
Q 1072 -75 642 372 
Q 213 819 213 1659 
z
M 791 1659 
Q 791 1022 1069 705 
Q 1347 388 1769 388 
Q 2188 388 2466 706 
Q 2744 1025 2744 1678 
Q 2744 2294 2464 2611 
Q 2184 2928 1769 2928 
Q 1347 2928 1069 2612 
Q 791 2297 791 1659 
z
" transform="scale(0.015625)"/>
       <path id="ArialMT-6d" d="M 422 0 
L 422 3319 
L 925 3319 
L 925 2853 
Q 1081 3097 1340 3245 
Q 1600 3394 1931 3394 
Q 2300 3394 2536 3241 
Q 2772 3088 2869 2813 
Q 3263 3394 3894 3394 
Q 4388 3394 4653 3120 
Q 4919 2847 4919 2278 
L 4919 0 
L 4359 0 
L 4359 2091 
Q 4359 2428 4304 2576 
Q 4250 2725 4106 2815 
Q 3963 2906 3769 2906 
Q 3419 2906 3187 2673 
Q 2956 2441 2956 1928 
L 2956 0 
L 2394 0 
L 2394 2156 
Q 2394 2531 2256 2718 
Q 2119 2906 1806 2906 
Q 1569 2906 1367 2781 
Q 1166 2656 1075 2415 
Q 984 2175 984 1722 
L 984 0 
L 422 0 
z
" transform="scale(0.015625)"/>
       <path id="ArialMT-65" d="M 2694 1069 
L 3275 997 
Q 3138 488 2766 206 
Q 2394 -75 1816 -75 
Q 1088 -75 661 373 
Q 234 822 234 1631 
Q 234 2469 665 2931 
Q 1097 3394 1784 3394 
Q 2450 3394 2872 2941 
Q 3294 2488 3294 1666 
Q 3294 1616 3291 1516 
L 816 1516 
Q 847 969 1125 678 
Q 1403 388 1819 388 
Q 2128 388 2347 550 
Q 2566 713 2694 1069 
z
M 847 1978 
L 2700 1978 
Q 2663 2397 2488 2606 
Q 2219 2931 1791 2931 
Q 1403 2931 1139 2672 
Q 875 2413 847 1978 
z
" transform="scale(0.015625)"/>
       <path id="ArialMT-74" d="M 1650 503 
L 1731 6 
Q 1494 -44 1306 -44 
Q 1000 -44 831 53 
Q 663 150 594 308 
Q 525 466 525 972 
L 525 2881 
L 113 2881 
L 113 3319 
L 525 3319 
L 525 4141 
L 1084 4478 
L 1084 3319 
L 1650 3319 
L 1650 2881 
L 1084 2881 
L 1084 941 
Q 1084 700 1114 631 
Q 1144 563 1211 522 
Q 1278 481 1403 481 
Q 1497 481 1650 503 
z
" transform="scale(0.015625)"/>
       <path id="ArialMT-20" transform="scale(0.015625)"/>
       <path id="ArialMT-73" d="M 197 991 
L 753 1078 
Q 800 744 1014 566 
Q 1228 388 1613 388 
Q 2000 388 2187 545 
Q 2375 703 2375 916 
Q 2375 1106 2209 1216 
Q 2094 1291 1634 1406 
Q 1016 1563 777 1677 
Q 538 1791 414 1992 
Q 291 2194 291 2438 
Q 291 2659 392 2848 
Q 494 3038 669 3163 
Q 800 3259 1026 3326 
Q 1253 3394 1513 3394 
Q 1903 3394 2198 3281 
Q 2494 3169 2634 2976 
Q 2775 2784 2828 2463 
L 2278 2388 
Q 2241 2644 2061 2787 
Q 1881 2931 1553 2931 
Q 1166 2931 1000 2803 
Q 834 2675 834 2503 
Q 834 2394 903 2306 
Q 972 2216 1119 2156 
Q 1203 2125 1616 2013 
Q 2213 1853 2448 1751 
Q 2684 1650 2818 1456 
Q 2953 1263 2953 975 
Q 2953 694 2789 445 
Q 2625 197 2315 61 
Q 2006 -75 1616 -75 
Q 969 -75 630 194 
Q 291 463 197 991 
z
" transform="scale(0.015625)"/>
       <path id="ArialMT-70" d="M 422 -1272 
L 422 3319 
L 934 3319 
L 934 2888 
Q 1116 3141 1344 3267 
Q 1572 3394 1897 3394 
Q 2322 3394 2647 3175 
Q 2972 2956 3137 2557 
Q 3303 2159 3303 1684 
Q 3303 1175 3120 767 
Q 2938 359 2589 142 
Q 2241 -75 1856 -75 
Q 1575 -75 1351 44 
Q 1128 163 984 344 
L 984 -1272 
L 422 -1272 
z
M 931 1641 
Q 931 1000 1190 694 
Q 1450 388 1819 388 
Q 2194 388 2461 705 
Q 2728 1022 2728 1688 
Q 2728 2322 2467 2637 
Q 2206 2953 1844 2953 
Q 1484 2953 1207 2617 
Q 931 2281 931 1641 
z
" transform="scale(0.015625)"/>
      </defs>
      <use xlink:href="#ArialMT-45"/>
      <use xlink:href="#ArialMT-6e" x="66.699219"/>
      <use xlink:href="#ArialMT-76" x="122.314453"/>
      <use xlink:href="#ArialMT-69" x="172.314453"/>
      <use xlink:href="#ArialMT-72" x="194.53125"/>
      <use xlink:href="#ArialMT-6f" x="227.832031"/>
      <use xlink:href="#ArialMT-6e" x="283.447266"/>
      <use xlink:href="#ArialMT-6d" x="339.0625"/>
      <use xlink:href="#ArialMT-65" x="422.363281"/>
      <use xlink:href="#ArialMT-6e" x="477.978516"/>
      <use xlink:href="#ArialMT-74" x="533.59375"/>
      <use xlink:href="#ArialMT-20" x="561.376953"/>
      <use xlink:href="#ArialMT-73" x="589.160156"/>
      <use xlink:href="#ArialMT-74" x="639.160156"/>
      <use xlink:href="#ArialMT-65" x="666.943359"/>
      <use xlink:href="#ArialMT-70" x="722.558594"/>
      <use xlink:href="#ArialMT-73" x="778.173828"/>
     </g>
    </g>
   </g>
   <g id="matplotlib.axis_2">
    <g id="ytick_1">
     <g id="line2d_6">
      <path d="M 67.60125 143.084174 
L 347.642076 143.084174 
" clip-path="url(#p9b5c4685f6)" style="fill: none; stroke: #ffffff; stroke-linecap: round"/>
     </g>
     <g id="text_7">
      <!-- −100000 -->
      <g style="fill: #262626" transform="translate(14.974375 147.020971) scale(0.11 -0.11)">
       <defs>
        <path id="ArialMT-2212" d="M 3381 1997 
L 356 1997 
L 356 2522 
L 3381 2522 
L 3381 1997 
z
" transform="scale(0.015625)"/>
       </defs>
       <use xlink:href="#ArialMT-2212"/>
       <use xlink:href="#ArialMT-31" x="58.398438"/>
       <use xlink:href="#ArialMT-30" x="114.013672"/>
       <use xlink:href="#ArialMT-30" x="169.628906"/>
       <use xlink:href="#ArialMT-30" x="225.244141"/>
       <use xlink:href="#ArialMT-30" x="280.859375"/>
       <use xlink:href="#ArialMT-30" x="336.474609"/>
      </g>
     </g>
    </g>
    <g id="ytick_2">
     <g id="line2d_7">
      <path d="M 67.60125 118.28717 
L 347.642076 118.28717 
" clip-path="url(#p9b5c4685f6)" style="fill: none; stroke: #ffffff; stroke-linecap: round"/>
     </g>
     <g id="text_8">
      <!-- −80000 -->
      <g style="fill: #262626" transform="translate(21.091406 122.223967) scale(0.11 -0.11)">
       <defs>
        <path id="ArialMT-38" d="M 1131 2484 
Q 781 2613 612 2850 
Q 444 3088 444 3419 
Q 444 3919 803 4259 
Q 1163 4600 1759 4600 
Q 2359 4600 2725 4251 
Q 3091 3903 3091 3403 
Q 3091 3084 2923 2848 
Q 2756 2613 2416 2484 
Q 2838 2347 3058 2040 
Q 3278 1734 3278 1309 
Q 3278 722 2862 322 
Q 2447 -78 1769 -78 
Q 1091 -78 675 323 
Q 259 725 259 1325 
Q 259 1772 486 2073 
Q 713 2375 1131 2484 
z
M 1019 3438 
Q 1019 3113 1228 2906 
Q 1438 2700 1772 2700 
Q 2097 2700 2305 2904 
Q 2513 3109 2513 3406 
Q 2513 3716 2298 3927 
Q 2084 4138 1766 4138 
Q 1444 4138 1231 3931 
Q 1019 3725 1019 3438 
z
M 838 1322 
Q 838 1081 952 856 
Q 1066 631 1291 507 
Q 1516 384 1775 384 
Q 2178 384 2440 643 
Q 2703 903 2703 1303 
Q 2703 1709 2433 1975 
Q 2163 2241 1756 2241 
Q 1359 2241 1098 1978 
Q 838 1716 838 1322 
z
" transform="scale(0.015625)"/>
       </defs>
       <use xlink:href="#ArialMT-2212"/>
       <use xlink:href="#ArialMT-38" x="58.398438"/>
       <use xlink:href="#ArialMT-30" x="114.013672"/>
       <use xlink:href="#ArialMT-30" x="169.628906"/>
       <use xlink:href="#ArialMT-30" x="225.244141"/>
       <use xlink:href="#ArialMT-30" x="280.859375"/>
      </g>
     </g>
    </g>
    <g id="ytick_3">
     <g id="line2d_8">
      <path d="M 67.60125 93.490166 
L 347.642076 93.490166 
" clip-path="url(#p9b5c4685f6)" style="fill: none; stroke: #ffffff; stroke-linecap: round"/>
     </g>
     <g id="text_9">
      <!-- −60000 -->
      <g style="fill: #262626" transform="translate(21.091406 97.426963) scale(0.11 -0.11)">
       <defs>
        <path id="ArialMT-36" d="M 3184 3459 
L 2625 3416 
Q 2550 3747 2413 3897 
Q 2184 4138 1850 4138 
Q 1581 4138 1378 3988 
Q 1113 3794 959 3422 
Q 806 3050 800 2363 
Q 1003 2672 1297 2822 
Q 1591 2972 1913 2972 
Q 2475 2972 2870 2558 
Q 3266 2144 3266 1488 
Q 3266 1056 3080 686 
Q 2894 316 2569 119 
Q 2244 -78 1831 -78 
Q 1128 -78 684 439 
Q 241 956 241 2144 
Q 241 3472 731 4075 
Q 1159 4600 1884 4600 
Q 2425 4600 2770 4297 
Q 3116 3994 3184 3459 
z
M 888 1484 
Q 888 1194 1011 928 
Q 1134 663 1356 523 
Q 1578 384 1822 384 
Q 2178 384 2434 671 
Q 2691 959 2691 1453 
Q 2691 1928 2437 2201 
Q 2184 2475 1800 2475 
Q 1419 2475 1153 2201 
Q 888 1928 888 1484 
z
" transform="scale(0.015625)"/>
       </defs>
       <use xlink:href="#ArialMT-2212"/>
       <use xlink:href="#ArialMT-36" x="58.398438"/>
       <use xlink:href="#ArialMT-30" x="114.013672"/>
       <use xlink:href="#ArialMT-30" x="169.628906"/>
       <use xlink:href="#ArialMT-30" x="225.244141"/>
       <use xlink:href="#ArialMT-30" x="280.859375"/>
      </g>
     </g>
    </g>
    <g id="ytick_4">
     <g id="line2d_9">
      <path d="M 67.60125 68.693162 
L 347.642076 68.693162 
" clip-path="url(#p9b5c4685f6)" style="fill: none; stroke: #ffffff; stroke-linecap: round"/>
     </g>
     <g id="text_10">
      <!-- −40000 -->
      <g style="fill: #262626" transform="translate(21.091406 72.629959) scale(0.11 -0.11)">
       <defs>
        <path id="ArialMT-34" d="M 2069 0 
L 2069 1097 
L 81 1097 
L 81 1613 
L 2172 4581 
L 2631 4581 
L 2631 1613 
L 3250 1613 
L 3250 1097 
L 2631 1097 
L 2631 0 
L 2069 0 
z
M 2069 1613 
L 2069 3678 
L 634 1613 
L 2069 1613 
z
" transform="scale(0.015625)"/>
       </defs>
       <use xlink:href="#ArialMT-2212"/>
       <use xlink:href="#ArialMT-34" x="58.398438"/>
       <use xlink:href="#ArialMT-30" x="114.013672"/>
       <use xlink:href="#ArialMT-30" x="169.628906"/>
       <use xlink:href="#ArialMT-30" x="225.244141"/>
       <use xlink:href="#ArialMT-30" x="280.859375"/>
      </g>
     </g>
    </g>
    <g id="ytick_5">
     <g id="line2d_10">
      <path d="M 67.60125 43.896158 
L 347.642076 43.896158 
" clip-path="url(#p9b5c4685f6)" style="fill: none; stroke: #ffffff; stroke-linecap: round"/>
     </g>
     <g id="text_11">
      <!-- −20000 -->
      <g style="fill: #262626" transform="translate(21.091406 47.832955) scale(0.11 -0.11)">
       <use xlink:href="#ArialMT-2212"/>
       <use xlink:href="#ArialMT-32" x="58.398438"/>
       <use xlink:href="#ArialMT-30" x="114.013672"/>
       <use xlink:href="#ArialMT-30" x="169.628906"/>
       <use xlink:href="#ArialMT-30" x="225.244141"/>
       <use xlink:href="#ArialMT-30" x="280.859375"/>
      </g>
     </g>
    </g>
    <g id="ytick_6">
     <g id="line2d_11">
      <path d="M 67.60125 19.099155 
L 347.642076 19.099155 
" clip-path="url(#p9b5c4685f6)" style="fill: none; stroke: #ffffff; stroke-linecap: round"/>
     </g>
     <g id="text_12">
      <!-- 0 -->
      <g style="fill: #262626" transform="translate(51.984219 23.035951) scale(0.11 -0.11)">
       <use xlink:href="#ArialMT-30"/>
      </g>
     </g>
    </g>
    <g id="text_13">
     <!-- Episode Reward -->
     <g style="fill: #262626" transform="translate(8.589375 125.444063) rotate(-90) scale(0.12 -0.12)">
      <defs>
       <path id="ArialMT-64" d="M 2575 0 
L 2575 419 
Q 2259 -75 1647 -75 
Q 1250 -75 917 144 
Q 584 363 401 755 
Q 219 1147 219 1656 
Q 219 2153 384 2558 
Q 550 2963 881 3178 
Q 1213 3394 1622 3394 
Q 1922 3394 2156 3267 
Q 2391 3141 2538 2938 
L 2538 4581 
L 3097 4581 
L 3097 0 
L 2575 0 
z
M 797 1656 
Q 797 1019 1065 703 
Q 1334 388 1700 388 
Q 2069 388 2326 689 
Q 2584 991 2584 1609 
Q 2584 2291 2321 2609 
Q 2059 2928 1675 2928 
Q 1300 2928 1048 2622 
Q 797 2316 797 1656 
z
" transform="scale(0.015625)"/>
       <path id="ArialMT-52" d="M 503 0 
L 503 4581 
L 2534 4581 
Q 3147 4581 3465 4457 
Q 3784 4334 3975 4021 
Q 4166 3709 4166 3331 
Q 4166 2844 3850 2509 
Q 3534 2175 2875 2084 
Q 3116 1969 3241 1856 
Q 3506 1613 3744 1247 
L 4541 0 
L 3778 0 
L 3172 953 
Q 2906 1366 2734 1584 
Q 2563 1803 2427 1890 
Q 2291 1978 2150 2013 
Q 2047 2034 1813 2034 
L 1109 2034 
L 1109 0 
L 503 0 
z
M 1109 2559 
L 2413 2559 
Q 2828 2559 3062 2645 
Q 3297 2731 3419 2920 
Q 3541 3109 3541 3331 
Q 3541 3656 3305 3865 
Q 3069 4075 2559 4075 
L 1109 4075 
L 1109 2559 
z
" transform="scale(0.015625)"/>
       <path id="ArialMT-77" d="M 1034 0 
L 19 3319 
L 600 3319 
L 1128 1403 
L 1325 691 
Q 1338 744 1497 1375 
L 2025 3319 
L 2603 3319 
L 3100 1394 
L 3266 759 
L 3456 1400 
L 4025 3319 
L 4572 3319 
L 3534 0 
L 2950 0 
L 2422 1988 
L 2294 2553 
L 1622 0 
L 1034 0 
z
" transform="scale(0.015625)"/>
       <path id="ArialMT-61" d="M 2588 409 
Q 2275 144 1986 34 
Q 1697 -75 1366 -75 
Q 819 -75 525 192 
Q 231 459 231 875 
Q 231 1119 342 1320 
Q 453 1522 633 1644 
Q 813 1766 1038 1828 
Q 1203 1872 1538 1913 
Q 2219 1994 2541 2106 
Q 2544 2222 2544 2253 
Q 2544 2597 2384 2738 
Q 2169 2928 1744 2928 
Q 1347 2928 1158 2789 
Q 969 2650 878 2297 
L 328 2372 
Q 403 2725 575 2942 
Q 747 3159 1072 3276 
Q 1397 3394 1825 3394 
Q 2250 3394 2515 3294 
Q 2781 3194 2906 3042 
Q 3031 2891 3081 2659 
Q 3109 2516 3109 2141 
L 3109 1391 
Q 3109 606 3145 398 
Q 3181 191 3288 0 
L 2700 0 
Q 2613 175 2588 409 
z
M 2541 1666 
Q 2234 1541 1622 1453 
Q 1275 1403 1131 1340 
Q 988 1278 909 1158 
Q 831 1038 831 891 
Q 831 666 1001 516 
Q 1172 366 1500 366 
Q 1825 366 2078 508 
Q 2331 650 2450 897 
Q 2541 1088 2541 1459 
L 2541 1666 
z
" transform="scale(0.015625)"/>
      </defs>
      <use xlink:href="#ArialMT-45"/>
      <use xlink:href="#ArialMT-70" x="66.699219"/>
      <use xlink:href="#ArialMT-69" x="122.314453"/>
      <use xlink:href="#ArialMT-73" x="144.53125"/>
      <use xlink:href="#ArialMT-6f" x="194.53125"/>
      <use xlink:href="#ArialMT-64" x="250.146484"/>
      <use xlink:href="#ArialMT-65" x="305.761719"/>
      <use xlink:href="#ArialMT-20" x="361.376953"/>
      <use xlink:href="#ArialMT-52" x="389.160156"/>
      <use xlink:href="#ArialMT-65" x="461.376953"/>
      <use xlink:href="#ArialMT-77" x="516.992188"/>
      <use xlink:href="#ArialMT-61" x="589.208984"/>
      <use xlink:href="#ArialMT-72" x="644.824219"/>
      <use xlink:href="#ArialMT-64" x="678.125"/>
     </g>
    </g>
   </g>
   <g id="PolyCollection_1">
    <defs>
     <path id="m1bad27151a" d="M 80.330378 -176.987618 
L 80.330378 -41.936207 
L 82.90192 -55.852678 
L 85.473461 -56.72289 
L 88.045002 -84.880209 
L 90.616543 -80.895484 
L 93.188084 -98.11862 
L 95.759625 -105.35825 
L 98.331166 -100.311206 
L 100.902707 -107.750198 
L 103.474248 -115.030007 
L 106.04579 -119.170452 
L 108.617331 -118.617304 
L 111.188872 -120.334058 
L 113.760413 -124.915623 
L 116.331954 -124.163594 
L 118.903495 -118.41333 
L 121.475036 -129.505881 
L 124.046577 -121.114123 
L 126.618118 -127.372289 
L 129.189659 -124.91689 
L 131.761201 -133.116939 
L 134.332742 -129.707953 
L 136.904283 -128.990577 
L 139.475824 -126.464675 
L 142.047365 -129.311125 
L 144.618906 -136.281942 
L 147.190447 -135.500273 
L 149.761988 -135.413396 
L 152.333529 -130.294786 
L 154.905071 -126.827248 
L 157.476612 -129.538416 
L 160.048153 -136.849385 
L 162.619694 -126.958584 
L 165.191235 -132.220563 
L 167.762776 -131.670768 
L 170.334317 -133.370464 
L 172.905858 -123.610163 
L 175.477399 -129.737425 
L 178.048941 -135.801301 
L 180.620482 -129.880828 
L 183.192023 -131.887086 
L 185.763564 -130.7846 
L 188.335105 -136.443612 
L 190.906646 -131.306434 
L 193.478187 -129.801027 
L 196.049728 -132.328975 
L 198.621269 -134.404542 
L 201.19281 -139.038156 
L 203.764352 -127.742723 
L 206.335893 -134.775359 
L 208.907434 -133.644859 
L 211.478975 -133.203137 
L 214.050516 -135.97495 
L 216.622057 -133.104329 
L 219.193598 -132.102009 
L 221.765139 -126.459666 
L 224.33668 -138.972664 
L 226.908222 -133.60367 
L 229.479763 -128.029972 
L 232.051304 -140.463533 
L 234.622845 -131.23821 
L 237.194386 -133.141188 
L 239.765927 -131.073103 
L 242.337468 -138.14371 
L 244.909009 -132.530598 
L 247.48055 -135.742566 
L 250.052091 -138.136213 
L 252.623633 -127.922357 
L 255.195174 -131.994634 
L 257.766715 -129.531489 
L 260.338256 -132.334133 
L 262.909797 -134.270166 
L 265.481338 -140.543692 
L 268.052879 -140.648007 
L 270.62442 -139.190908 
L 273.195961 -133.452505 
L 275.767503 -130.664862 
L 278.339044 -132.908665 
L 280.910585 -130.802464 
L 283.482126 -138.006591 
L 286.053667 -129.13576 
L 288.625208 -129.189784 
L 291.196749 -136.895589 
L 293.76829 -132.069187 
L 296.339831 -130.157174 
L 298.911372 -133.920381 
L 301.482914 -136.072747 
L 304.054455 -138.217915 
L 306.625996 -131.326634 
L 309.197537 -139.363905 
L 311.769078 -129.305912 
L 311.769078 -177.88427 
L 311.769078 -177.88427 
L 309.197537 -177.16563 
L 306.625996 -177.587535 
L 304.054455 -177.375174 
L 301.482914 -177.702867 
L 298.911372 -177.806538 
L 296.339831 -178.02941 
L 293.76829 -179.014683 
L 291.196749 -177.78503 
L 288.625208 -178.148139 
L 286.053667 -178.229983 
L 283.482126 -177.08357 
L 280.910585 -178.040712 
L 278.339044 -177.371209 
L 275.767503 -179.252348 
L 273.195961 -177.476707 
L 270.62442 -177.31332 
L 268.052879 -176.640318 
L 265.481338 -175.59042 
L 262.909797 -178.417298 
L 260.338256 -177.489548 
L 257.766715 -178.598865 
L 255.195174 -177.973223 
L 252.623633 -178.630062 
L 250.052091 -176.960847 
L 247.48055 -177.595556 
L 244.909009 -178.011378 
L 242.337468 -177.514126 
L 239.765927 -179.011949 
L 237.194386 -178.130217 
L 234.622845 -178.528887 
L 232.051304 -176.970462 
L 229.479763 -179.456917 
L 226.908222 -178.095055 
L 224.33668 -177.62123 
L 221.765139 -179.309751 
L 219.193598 -177.850412 
L 216.622057 -177.308061 
L 214.050516 -177.88594 
L 211.478975 -178.011136 
L 208.907434 -178.062026 
L 206.335893 -177.044995 
L 203.764352 -179.509353 
L 201.19281 -178.244797 
L 198.621269 -177.899258 
L 196.049728 -177.47707 
L 193.478187 -177.966603 
L 190.906646 -178.701534 
L 188.335105 -176.925508 
L 185.763564 -178.300675 
L 183.192023 -179.262747 
L 180.620482 -178.384188 
L 178.048941 -178.081539 
L 175.477399 -178.399337 
L 172.905858 -180.101381 
L 170.334317 -177.899086 
L 167.762776 -178.645901 
L 165.191235 -178.790936 
L 162.619694 -178.495686 
L 160.048153 -177.336696 
L 157.476612 -178.798669 
L 154.905071 -178.508076 
L 152.333529 -178.801786 
L 149.761988 -177.294029 
L 147.190447 -177.406167 
L 144.618906 -176.852649 
L 142.047365 -177.815615 
L 139.475824 -178.754883 
L 136.904283 -178.786049 
L 134.332742 -178.612586 
L 131.761201 -177.93644 
L 129.189659 -178.972429 
L 126.618118 -178.793673 
L 124.046577 -179.464147 
L 121.475036 -177.705945 
L 118.903495 -180.433323 
L 116.331954 -178.620128 
L 113.760413 -179.52008 
L 111.188872 -180.705171 
L 108.617331 -179.812609 
L 106.04579 -180.92299 
L 103.474248 -180.909388 
L 100.902707 -182.326321 
L 98.331166 -183.178368 
L 95.759625 -182.411845 
L 93.188084 -184.146518 
L 90.616543 -187.575122 
L 88.045002 -185.122761 
L 85.473461 -189.97598 
L 82.90192 -186.514212 
L 80.330378 -176.987618 
z
" style="stroke: #ad3803; stroke-opacity: 0.3"/>
    </defs>
    <g clip-path="url(#p9b5c4685f6)">
     <use xlink:href="#m1bad27151a" x="0" y="197.377969" style="fill: #ad3803; fill-opacity: 0.3; stroke: #ad3803; stroke-opacity: 0.3"/>
    </g>
   </g>
   <g id="PolyCollection_2">
    <defs>
     <path id="m88b537e20d" d="M 80.330378 -176.987618 
L 80.330378 -41.936207 
L 82.90192 -55.852678 
L 85.473461 -56.72289 
L 88.045002 -84.880209 
L 90.616543 -80.895484 
L 93.188084 -98.11862 
L 95.759625 -105.35825 
L 98.331166 -100.311206 
L 100.902707 -107.750198 
L 103.474248 -115.030007 
L 106.04579 -119.170452 
L 108.617331 -118.617304 
L 111.188872 -120.334058 
L 113.760413 -124.915623 
L 116.331954 -124.163594 
L 118.903495 -118.41333 
L 121.475036 -129.505881 
L 124.046577 -121.114123 
L 126.618118 -127.372289 
L 129.189659 -124.91689 
L 131.761201 -133.116939 
L 134.332742 -129.707953 
L 136.904283 -128.990577 
L 139.475824 -126.464675 
L 142.047365 -129.311125 
L 144.618906 -136.281942 
L 147.190447 -135.500273 
L 149.761988 -135.413396 
L 152.333529 -130.294786 
L 154.905071 -126.827248 
L 157.476612 -129.538416 
L 160.048153 -136.849385 
L 162.619694 -126.958584 
L 165.191235 -132.220563 
L 167.762776 -131.670768 
L 170.334317 -133.370464 
L 172.905858 -123.610163 
L 175.477399 -129.737425 
L 178.048941 -135.801301 
L 180.620482 -129.880828 
L 183.192023 -131.887086 
L 185.763564 -130.7846 
L 188.335105 -136.443612 
L 190.906646 -131.306434 
L 193.478187 -129.801027 
L 196.049728 -132.328975 
L 198.621269 -134.404542 
L 201.19281 -139.038156 
L 203.764352 -127.742723 
L 206.335893 -134.775359 
L 208.907434 -133.644859 
L 211.478975 -133.203137 
L 214.050516 -135.97495 
L 216.622057 -133.104329 
L 219.193598 -132.102009 
L 221.765139 -126.459666 
L 224.33668 -138.972664 
L 226.908222 -133.60367 
L 229.479763 -128.029972 
L 232.051304 -140.463533 
L 234.622845 -131.23821 
L 237.194386 -133.141188 
L 239.765927 -131.073103 
L 242.337468 -138.14371 
L 244.909009 -132.530598 
L 247.48055 -135.742566 
L 250.052091 -138.136213 
L 252.623633 -127.922357 
L 255.195174 -131.994634 
L 257.766715 -129.531489 
L 260.338256 -132.334133 
L 262.909797 -134.270166 
L 265.481338 -140.543692 
L 268.052879 -140.648007 
L 270.62442 -139.190908 
L 273.195961 -133.452505 
L 275.767503 -130.664862 
L 278.339044 -132.908665 
L 280.910585 -130.802464 
L 283.482126 -138.006591 
L 286.053667 -129.13576 
L 288.625208 -129.189784 
L 291.196749 -136.895589 
L 293.76829 -132.069187 
L 296.339831 -130.157174 
L 298.911372 -133.920381 
L 301.482914 -136.072747 
L 304.054455 -138.217915 
L 306.625996 -131.326634 
L 309.197537 -139.363905 
L 311.769078 -129.305912 
L 311.769078 -177.88427 
L 311.769078 -177.88427 
L 309.197537 -177.16563 
L 306.625996 -177.587535 
L 304.054455 -177.375174 
L 301.482914 -177.702867 
L 298.911372 -177.806538 
L 296.339831 -178.02941 
L 293.76829 -179.014683 
L 291.196749 -177.78503 
L 288.625208 -178.148139 
L 286.053667 -178.229983 
L 283.482126 -177.08357 
L 280.910585 -178.040712 
L 278.339044 -177.371209 
L 275.767503 -179.252348 
L 273.195961 -177.476707 
L 270.62442 -177.31332 
L 268.052879 -176.640318 
L 265.481338 -175.59042 
L 262.909797 -178.417298 
L 260.338256 -177.489548 
L 257.766715 -178.598865 
L 255.195174 -177.973223 
L 252.623633 -178.630062 
L 250.052091 -176.960847 
L 247.48055 -177.595556 
L 244.909009 -178.011378 
L 242.337468 -177.514126 
L 239.765927 -179.011949 
L 237.194386 -178.130217 
L 234.622845 -178.528887 
L 232.051304 -176.970462 
L 229.479763 -179.456917 
L 226.908222 -178.095055 
L 224.33668 -177.62123 
L 221.765139 -179.309751 
L 219.193598 -177.850412 
L 216.622057 -177.308061 
L 214.050516 -177.88594 
L 211.478975 -178.011136 
L 208.907434 -178.062026 
L 206.335893 -177.044995 
L 203.764352 -179.509353 
L 201.19281 -178.244797 
L 198.621269 -177.899258 
L 196.049728 -177.47707 
L 193.478187 -177.966603 
L 190.906646 -178.701534 
L 188.335105 -176.925508 
L 185.763564 -178.300675 
L 183.192023 -179.262747 
L 180.620482 -178.384188 
L 178.048941 -178.081539 
L 175.477399 -178.399337 
L 172.905858 -180.101381 
L 170.334317 -177.899086 
L 167.762776 -178.645901 
L 165.191235 -178.790936 
L 162.619694 -178.495686 
L 160.048153 -177.336696 
L 157.476612 -178.798669 
L 154.905071 -178.508076 
L 152.333529 -178.801786 
L 149.761988 -177.294029 
L 147.190447 -177.406167 
L 144.618906 -176.852649 
L 142.047365 -177.815615 
L 139.475824 -178.754883 
L 136.904283 -178.786049 
L 134.332742 -178.612586 
L 131.761201 -177.93644 
L 129.189659 -178.972429 
L 126.618118 -178.793673 
L 124.046577 -179.464147 
L 121.475036 -177.705945 
L 118.903495 -180.433323 
L 116.331954 -178.620128 
L 113.760413 -179.52008 
L 111.188872 -180.705171 
L 108.617331 -179.812609 
L 106.04579 -180.92299 
L 103.474248 -180.909388 
L 100.902707 -182.326321 
L 98.331166 -183.178368 
L 95.759625 -182.411845 
L 93.188084 -184.146518 
L 90.616543 -187.575122 
L 88.045002 -185.122761 
L 85.473461 -189.97598 
L 82.90192 -186.514212 
L 80.330378 -176.987618 
z
" style="stroke: #0b559f; stroke-opacity: 0.3"/>
    </defs>
    <g clip-path="url(#p9b5c4685f6)">
     <use xlink:href="#m88b537e20d" x="0" y="197.377969" style="fill: #0b559f; fill-opacity: 0.3; stroke: #0b559f; stroke-opacity: 0.3"/>
    </g>
   </g>
   <g id="line2d_12">
    <path d="M 80.330378 87.916056 
L 82.90192 76.194524 
L 85.473461 74.028534 
L 88.045002 62.376484 
L 90.616543 63.142666 
L 93.188084 56.2454 
L 95.759625 53.492922 
L 98.331166 55.633182 
L 100.902707 52.339709 
L 103.474248 49.408271 
L 106.04579 47.331248 
L 108.617331 48.163012 
L 111.188872 46.858354 
L 113.760413 45.160117 
L 116.331954 45.986108 
L 118.903495 47.954642 
L 121.475036 43.772056 
L 124.046577 47.088834 
L 126.618118 44.294987 
L 129.189659 45.43331 
L 131.761201 41.851279 
L 134.332742 43.217699 
L 136.904283 43.489656 
L 139.475824 44.76819 
L 142.047365 43.814598 
L 144.618906 40.810674 
L 147.190447 40.924749 
L 149.761988 41.024256 
L 152.333529 42.829682 
L 154.905071 44.710307 
L 157.476612 43.209426 
L 160.048153 40.284928 
L 162.619694 44.650834 
L 165.191235 41.87222 
L 167.762776 42.219634 
L 170.334317 41.743194 
L 172.905858 45.522197 
L 175.477399 43.309588 
L 178.048941 40.436548 
L 180.620482 43.24546 
L 183.192023 41.803052 
L 185.763564 42.835331 
L 188.335105 40.693409 
L 190.906646 42.373985 
L 193.478187 43.494154 
L 196.049728 42.474946 
L 198.621269 41.226069 
L 201.19281 38.736492 
L 203.764352 43.751931 
L 206.335893 41.467791 
L 208.907434 41.524526 
L 211.478975 41.770832 
L 214.050516 40.447524 
L 216.622057 42.171774 
L 219.193598 42.401758 
L 221.765139 44.49326 
L 224.33668 39.081022 
L 226.908222 41.528607 
L 229.479763 43.634524 
L 232.051304 38.660971 
L 234.622845 42.49442 
L 237.194386 41.742266 
L 239.765927 42.335443 
L 242.337468 39.549051 
L 244.909009 42.10698 
L 247.48055 40.708908 
L 250.052091 39.829439 
L 252.623633 44.101759 
L 255.195174 42.39404 
L 257.766715 43.312792 
L 260.338256 42.466128 
L 262.909797 41.034237 
L 265.481338 39.310913 
L 268.052879 38.733806 
L 270.62442 39.125855 
L 273.195961 41.913363 
L 275.767503 42.419364 
L 278.339044 42.238032 
L 280.910585 42.956381 
L 283.482126 39.832888 
L 286.053667 43.695097 
L 288.625208 43.709007 
L 291.196749 40.037659 
L 293.76829 41.836034 
L 296.339831 43.284676 
L 298.911372 41.514509 
L 301.482914 40.490162 
L 304.054455 39.581424 
L 306.625996 42.920884 
L 309.197537 39.113201 
L 311.769078 43.782878 
L 314.340619 55.253881 
L 316.91216 54.281065 
L 319.483701 57.090593 
L 322.055242 50.875731 
L 324.626784 45.148851 
L 327.198325 58.543479 
L 329.769866 59.885865 
L 332.341407 54.896213 
L 334.912948 55.892489 
" clip-path="url(#p9b5c4685f6)" style="fill: none; stroke: #ad3803; stroke-width: 1.5; stroke-linecap: round"/>
   </g>
   <g id="line2d_13">
    <path d="M 80.330378 87.916056 
L 82.90192 76.194524 
L 85.473461 74.028534 
L 88.045002 62.376484 
L 90.616543 63.142666 
L 93.188084 56.2454 
L 95.759625 53.492922 
L 98.331166 55.633182 
L 100.902707 52.339709 
L 103.474248 49.408271 
L 106.04579 47.331248 
L 108.617331 48.163012 
L 111.188872 46.858354 
L 113.760413 45.160117 
L 116.331954 45.986108 
L 118.903495 47.954642 
L 121.475036 43.772056 
L 124.046577 47.088834 
L 126.618118 44.294987 
L 129.189659 45.43331 
L 131.761201 41.851279 
L 134.332742 43.217699 
L 136.904283 43.489656 
L 139.475824 44.76819 
L 142.047365 43.814598 
L 144.618906 40.810674 
L 147.190447 40.924749 
L 149.761988 41.024256 
L 152.333529 42.829682 
L 154.905071 44.710307 
L 157.476612 43.209426 
L 160.048153 40.284928 
L 162.619694 44.650834 
L 165.191235 41.87222 
L 167.762776 42.219634 
L 170.334317 41.743194 
L 172.905858 45.522197 
L 175.477399 43.309588 
L 178.048941 40.436548 
L 180.620482 43.24546 
L 183.192023 41.803052 
L 185.763564 42.835331 
L 188.335105 40.693409 
L 190.906646 42.373985 
L 193.478187 43.494154 
L 196.049728 42.474946 
L 198.621269 41.226069 
L 201.19281 38.736492 
L 203.764352 43.751931 
L 206.335893 41.467791 
L 208.907434 41.524526 
L 211.478975 41.770832 
L 214.050516 40.447524 
L 216.622057 42.171774 
L 219.193598 42.401758 
L 221.765139 44.49326 
L 224.33668 39.081022 
L 226.908222 41.528607 
L 229.479763 43.634524 
L 232.051304 38.660971 
L 234.622845 42.49442 
L 237.194386 41.742266 
L 239.765927 42.335443 
L 242.337468 39.549051 
L 244.909009 42.10698 
L 247.48055 40.708908 
L 250.052091 39.829439 
L 252.623633 44.101759 
L 255.195174 42.39404 
L 257.766715 43.312792 
L 260.338256 42.466128 
L 262.909797 41.034237 
L 265.481338 39.310913 
L 268.052879 38.733806 
L 270.62442 39.125855 
L 273.195961 41.913363 
L 275.767503 42.419364 
L 278.339044 42.238032 
L 280.910585 42.956381 
L 283.482126 39.832888 
L 286.053667 43.695097 
L 288.625208 43.709007 
L 291.196749 40.037659 
L 293.76829 41.836034 
L 296.339831 43.284676 
L 298.911372 41.514509 
L 301.482914 40.490162 
L 304.054455 39.581424 
L 306.625996 42.920884 
L 309.197537 39.113201 
L 311.769078 43.782878 
L 314.340619 55.253881 
L 316.91216 54.281065 
L 319.483701 57.090593 
L 322.055242 50.875731 
L 324.626784 45.148851 
L 327.198325 58.543479 
L 329.769866 59.885865 
L 332.341407 54.896213 
L 334.912948 55.892489 
" clip-path="url(#p9b5c4685f6)" style="fill: none; stroke: #0b559f; stroke-width: 1.5; stroke-linecap: round"/>
   </g>
   <g id="patch_3">
    <path d="M 67.60125 162.84375 
L 67.60125 0 
" style="fill: none; stroke: #ffffff; stroke-width: 1.25; stroke-linejoin: miter; stroke-linecap: square"/>
   </g>
   <g id="patch_4">
    <path d="M 347.642076 162.84375 
L 347.642076 0 
" style="fill: none; stroke: #ffffff; stroke-width: 1.25; stroke-linejoin: miter; stroke-linecap: square"/>
   </g>
   <g id="patch_5">
    <path d="M 67.60125 162.84375 
L 347.642076 162.84375 
" style="fill: none; stroke: #ffffff; stroke-width: 1.25; stroke-linejoin: miter; stroke-linecap: square"/>
   </g>
   <g id="patch_6">
    <path d="M 67.60125 0 
L 347.642076 0 
" style="fill: none; stroke: #ffffff; stroke-width: 1.25; stroke-linejoin: miter; stroke-linecap: square"/>
   </g>
   <g id="legend_1">
    <g id="patch_7">
     <path d="M 280.328388 36.276109 
L 340.644876 36.276109 
Q 342.644076 36.276109 342.644076 34.276909 
L 342.644076 6.9972 
Q 342.644076 4.998 340.644876 4.998 
L 280.328388 4.998 
Q 278.329188 4.998 278.329188 6.9972 
L 278.329188 34.276909 
Q 278.329188 36.276109 280.328388 36.276109 
z
" style="fill: #eaeaf2; opacity: 0.8; stroke: #cccccc; stroke-linejoin: miter"/>
    </g>
    <g id="patch_8">
     <path d="M 282.327588 16.151349 
L 302.319588 16.151349 
L 302.319588 9.154149 
L 282.327588 9.154149 
z
" style="fill: #ad3803; stroke: #ad3803; stroke-linejoin: miter"/>
    </g>
    <g id="text_14">
     <!-- PODS -->
     <g style="fill: #262626" transform="translate(310.316388 16.151349) scale(0.09996 -0.09996)">
      <defs>
       <path id="ArialMT-50" d="M 494 0 
L 494 4581 
L 2222 4581 
Q 2678 4581 2919 4538 
Q 3256 4481 3484 4323 
Q 3713 4166 3852 3881 
Q 3991 3597 3991 3256 
Q 3991 2672 3619 2267 
Q 3247 1863 2275 1863 
L 1100 1863 
L 1100 0 
L 494 0 
z
M 1100 2403 
L 2284 2403 
Q 2872 2403 3119 2622 
Q 3366 2841 3366 3238 
Q 3366 3525 3220 3729 
Q 3075 3934 2838 4000 
Q 2684 4041 2272 4041 
L 1100 4041 
L 1100 2403 
z
" transform="scale(0.015625)"/>
       <path id="ArialMT-4f" d="M 309 2231 
Q 309 3372 921 4017 
Q 1534 4663 2503 4663 
Q 3138 4663 3647 4359 
Q 4156 4056 4423 3514 
Q 4691 2972 4691 2284 
Q 4691 1588 4409 1038 
Q 4128 488 3612 205 
Q 3097 -78 2500 -78 
Q 1853 -78 1343 234 
Q 834 547 571 1087 
Q 309 1628 309 2231 
z
M 934 2222 
Q 934 1394 1379 917 
Q 1825 441 2497 441 
Q 3181 441 3623 922 
Q 4066 1403 4066 2288 
Q 4066 2847 3877 3264 
Q 3688 3681 3323 3911 
Q 2959 4141 2506 4141 
Q 1863 4141 1398 3698 
Q 934 3256 934 2222 
z
" transform="scale(0.015625)"/>
       <path id="ArialMT-44" d="M 494 0 
L 494 4581 
L 2072 4581 
Q 2606 4581 2888 4516 
Q 3281 4425 3559 4188 
Q 3922 3881 4101 3404 
Q 4281 2928 4281 2316 
Q 4281 1794 4159 1391 
Q 4038 988 3847 723 
Q 3656 459 3429 307 
Q 3203 156 2883 78 
Q 2563 0 2147 0 
L 494 0 
z
M 1100 541 
L 2078 541 
Q 2531 541 2789 625 
Q 3047 709 3200 863 
Q 3416 1078 3536 1442 
Q 3656 1806 3656 2325 
Q 3656 3044 3420 3430 
Q 3184 3816 2847 3947 
Q 2603 4041 2063 4041 
L 1100 4041 
L 1100 541 
z
" transform="scale(0.015625)"/>
       <path id="ArialMT-53" d="M 288 1472 
L 859 1522 
Q 900 1178 1048 958 
Q 1197 738 1509 602 
Q 1822 466 2213 466 
Q 2559 466 2825 569 
Q 3091 672 3220 851 
Q 3350 1031 3350 1244 
Q 3350 1459 3225 1620 
Q 3100 1781 2813 1891 
Q 2628 1963 1997 2114 
Q 1366 2266 1113 2400 
Q 784 2572 623 2826 
Q 463 3081 463 3397 
Q 463 3744 659 4045 
Q 856 4347 1234 4503 
Q 1613 4659 2075 4659 
Q 2584 4659 2973 4495 
Q 3363 4331 3572 4012 
Q 3781 3694 3797 3291 
L 3216 3247 
Q 3169 3681 2898 3903 
Q 2628 4125 2100 4125 
Q 1550 4125 1298 3923 
Q 1047 3722 1047 3438 
Q 1047 3191 1225 3031 
Q 1400 2872 2139 2705 
Q 2878 2538 3153 2413 
Q 3553 2228 3743 1945 
Q 3934 1663 3934 1294 
Q 3934 928 3725 604 
Q 3516 281 3123 101 
Q 2731 -78 2241 -78 
Q 1619 -78 1198 103 
Q 778 284 539 648 
Q 300 1013 288 1472 
z
" transform="scale(0.015625)"/>
      </defs>
      <use xlink:href="#ArialMT-50"/>
      <use xlink:href="#ArialMT-4f" x="66.699219"/>
      <use xlink:href="#ArialMT-44" x="144.482422"/>
      <use xlink:href="#ArialMT-53" x="216.699219"/>
     </g>
    </g>
    <g id="patch_9">
     <path d="M 282.327588 30.291004 
L 302.319588 30.291004 
L 302.319588 23.293804 
L 282.327588 23.293804 
z
" style="fill: #0b559f; stroke: #0b559f; stroke-linejoin: miter"/>
    </g>
    <g id="text_15">
     <!-- PPO -->
     <g style="fill: #262626" transform="translate(310.316388 30.291004) scale(0.09996 -0.09996)">
      <use xlink:href="#ArialMT-50"/>
      <use xlink:href="#ArialMT-50" x="66.699219"/>
      <use xlink:href="#ArialMT-4f" x="133.398438"/>
     </g>
    </g>
   </g>
  </g>
 </g>
 <defs>
  <clipPath id="p9b5c4685f6">
   <rect x="67.60125" y="0" width="280.040826" height="162.84375"/>
  </clipPath>
 </defs>
</svg>
